<svg width="48" height="48" viewBox="0 0 48 48" fill="none" xmlns="http://www.w3.org/2000/svg">
<path d="M24.5858 42.4345C24.2353 42.4529 23.874 42.4352 23.5226 42.4351L10.235 42.436C7.82868 42.4365 5.56757 40.8983 5.24592 38.4023C5.17321 37.838 5.19014 36.182 5.26982 35.6253C5.5027 33.9984 6.51037 32.4328 8.04815 31.7651C8.19586 31.701 8.15564 31.6814 8.15934 31.5298L8.37107 29.0034C8.82403 24.9964 10.0558 20.9845 12.5551 17.7654C14.3085 15.507 16.212 14.1818 19.0958 13.5983C19.3831 13.5402 19.6614 13.458 19.9534 13.4215C19.5063 12.7203 19.1162 12.2245 19.2547 11.2762L19.2607 11.2386C19.3235 10.8314 19.4462 10.4346 19.6881 10.0958C19.7396 10.0236 19.6368 9.7155 19.6254 9.61373C19.5087 8.5717 20.2871 7.42739 21.2787 7.12031L21.3104 7.11084C21.5163 7.04784 21.6605 7.10194 21.7885 6.91017C22.235 6.24103 22.8339 5.80514 23.665 5.72827C24.6039 5.56706 25.7457 6.20297 26.1939 7.00903C26.4013 7.38188 26.3246 7.2113 26.7607 7.30331C27.5192 7.46334 28.4231 8.15325 28.5827 8.95463L28.5974 9.02377C28.7654 9.42 28.7427 10.1266 28.5794 10.5076C28.5676 10.5352 28.7696 11.1435 28.7789 11.343C28.8135 12.0854 28.7118 12.8676 28.1371 13.4111L28.1202 13.4267C28.5525 13.5737 29.0132 13.6551 29.4519 13.7866C34.5677 15.3209 37.4228 18.9725 38.8132 23.9652C39.0273 24.734 39.2535 25.5527 39.3697 26.3441L39.7535 29.749L39.7853 31.7059C39.8917 31.7945 40.0139 31.7944 40.1342 31.8531C41.2455 32.3944 42.2296 33.3112 42.6562 34.4886L42.7608 34.8201C42.9408 35.3 42.9134 36.047 42.9434 36.5504L43.0185 37.3376C43.1775 39.4893 42.9279 40.3343 40.9472 41.5433C39.4019 42.4865 38.8367 42.4334 37.0682 42.4337L24.5858 42.4345ZM23.9084 7.31977C23.6161 7.371 23.359 7.45003 23.1794 7.70686L23.1143 7.82784C22.84 8.38608 22.9147 8.56097 22.2451 8.60489C20.9287 8.69119 21.2863 9.57727 21.3847 10.4069C21.4313 10.7997 21.0827 10.8817 20.9233 11.1934C20.4622 12.0953 21.9756 13.6676 23.2235 12.8957C23.5681 12.6826 23.8159 12.6165 24.2173 12.6913L24.25 12.7024C24.5102 12.7935 24.7065 12.98 24.961 13.0793L24.9957 13.093C25.8942 13.4339 27.5269 12.3488 27.1416 11.359C27.0335 11.0815 26.7375 10.7329 26.8655 10.4303C27.1409 9.77845 27.2337 9.22425 26.4666 8.89612L26.3242 8.83847C26.0209 8.70886 25.6124 8.90231 25.336 8.70014L25.3063 8.67942C24.7457 8.28173 24.9758 7.39041 23.9084 7.31977ZM23.902 14.418C23.0478 14.6894 22.4061 14.7949 21.5335 14.9197L20.4844 15.0995C17.8342 15.5827 15.8362 16.3377 14.0452 18.4878C11.422 21.6371 10.3502 25.7314 9.92043 29.7297L9.79345 30.9264C9.78164 31.0461 9.7537 31.1643 9.74859 31.2844L24.1362 31.2569L36.5798 31.2565C37.1192 31.2566 37.6836 31.2227 38.2187 31.2825L38.0333 28.5093C37.2717 21.5051 34.295 15.8591 26.7348 14.8793C25.6087 14.7334 25.0096 14.7903 23.902 14.418ZM9.95264 32.8882C8.83954 33.0079 7.62398 33.7798 7.16976 34.8393C7.27214 35.4023 7.11478 35.4322 7.02196 35.9334C6.87459 36.7289 6.72698 37.9739 7.06922 38.749L7.12828 38.9134C7.43484 39.8641 8.58609 40.6557 9.56254 40.7803C9.87731 40.8204 10.2194 40.7982 10.5376 40.7986L38.2559 40.7984C39.3145 40.7362 40.9088 39.9246 41.2163 38.8227L41.2918 38.462C41.4113 37.9197 41.3029 35.8852 41.1554 35.267C40.8583 34.0221 39.5997 33.1826 38.4163 32.9204C38.1452 32.8604 37.8327 32.8875 37.5553 32.8873L9.95264 32.8882Z" fill="black"/>
<path d="M24.1267 40.0777C23.3587 40.1454 23.2466 39.5715 23.2468 39.0132L23.2488 36.1378C23.2486 35.8006 23.1509 35.183 23.3345 34.8947L23.3547 34.8635C23.4811 34.6606 23.6327 34.5498 23.8613 34.4831C23.9468 34.4782 24.0254 34.4761 24.11 34.4914L24.1985 34.5069C24.3794 34.5446 24.5236 34.6683 24.6248 34.8167L24.6496 34.8534C24.75 34.9988 24.75 35.1148 24.7501 35.2899L24.7509 37.6852C24.7509 38.5494 25.0739 39.7551 24.1267 40.0777Z" fill="black"/>
<path d="M13.5583 40.0866C12.6383 40.3006 12.6062 39.3323 12.6059 38.7447L12.6065 36.0283C12.607 35.3992 12.4685 34.8275 13.148 34.5048C13.5759 34.4628 14.1061 34.6101 14.1311 35.1372L14.1329 39.0322C14.1321 39.5718 14.1226 39.8347 13.5583 40.0866Z" fill="black"/>
<path d="M18.7327 40.0666C18.1929 40.1441 17.8832 39.7015 17.8819 39.205L17.88 36.8786C17.8803 36.0704 17.5767 34.7599 18.5336 34.5034C19.0627 34.4784 19.3958 34.771 19.395 35.279L19.3919 38.883C19.3914 39.4416 19.411 39.8991 18.7327 40.0666Z" fill="black"/>
<path d="M29.4654 40.0797L29.2883 40.0816C28.5655 40.0386 28.6001 39.3091 28.5994 38.8147L28.598 36.0813C28.5979 35.7815 28.5831 35.4729 28.6038 35.174L28.6068 35.1331C28.6314 34.7749 28.9913 34.5601 29.3098 34.5078C29.4157 34.5132 29.5186 34.5148 29.6184 34.5547L29.6484 34.5673C29.8014 34.6293 29.9197 34.7219 30.0086 34.8615L30.029 34.8942C30.1755 35.1085 30.1083 35.4301 30.1087 35.6779L30.1103 38.6195C30.11 39.2803 30.2594 39.826 29.4654 40.0797Z" fill="black"/>
<path d="M34.8197 40.0732C34.4391 40.1855 34.1097 39.9709 33.9438 39.6276L33.9036 39.5454C33.8767 39.4767 33.8679 39.3895 33.866 39.3161L33.8638 35.6096C33.8648 35.0457 33.8796 34.7505 34.4636 34.5045C34.8383 34.4684 35.1741 34.5559 35.3292 34.9421L35.3442 34.9801C35.4964 35.2817 35.4136 35.7421 35.4139 36.0718L35.4128 38.8941C35.4123 39.1866 35.4858 39.5213 35.2751 39.7565L35.2493 39.7848C35.1209 39.9293 34.9987 40.0067 34.8197 40.0732Z" fill="black"/>
<path d="M9.80582 40.2237L9.77492 40.2295C8.79519 40.4014 8.83072 39.6253 8.83082 38.9574L8.8311 35.8387C8.83147 35.5184 8.74189 35.1203 8.9578 34.8544L8.97908 34.8285C9.11239 34.6613 9.23792 34.5997 9.43232 34.5277C9.56966 34.5127 9.71272 34.508 9.84299 34.5595L9.98502 34.6224C10.3926 34.8479 10.3831 35.2706 10.3837 35.666L10.3851 38.5604C10.3849 38.8671 10.4692 39.4588 10.321 39.7294L10.3023 39.7621C10.1735 39.9958 10.0435 40.1073 9.80582 40.2237Z" fill="black"/>
<path d="M38.5056 40.2649C37.8971 40.2909 37.6639 39.8357 37.6631 39.3157L37.6624 36.3341C37.6621 35.6229 37.4229 34.7351 38.3442 34.5274C39.1888 34.4597 39.1769 35.099 39.1794 35.6586L39.1825 38.8142C39.1824 39.0519 39.2616 39.6718 39.1221 39.8637L39.1014 39.8906C38.9348 40.1098 38.7691 40.2001 38.5056 40.2649Z" fill="black"/>
</svg>
