<svg width="48" height="48" viewBox="0 0 48 48" fill="none" xmlns="http://www.w3.org/2000/svg">
<path d="M17.6841 46.875C16.1309 46.8804 14.605 46.7022 13.2072 45.9589L12.0356 45.289C11.2405 44.8634 10.329 44.503 9.43294 44.3741C8.90625 44.2983 8.43657 44.4118 8.16736 43.8255C8.15105 43.79 8.13802 43.7553 8.11482 43.7236L8.08777 43.6861C8.03438 43.5872 8.02791 43.4138 8.02355 43.304L8.04558 40.1883C8.13971 38.8382 8.34169 37.4893 8.62008 36.165L9.03474 34.4453L3.25141 33.7233C2.54034 33.6032 2.49899 32.8641 2.71622 32.3087C3.59104 30.0718 3.35283 27.986 2.72161 25.718L2.09785 23.2886C2.07254 23.1209 2.06855 22.9488 2.03392 22.7825L1.9978 22.5735C1.77936 20.6173 2.20187 18.3454 3.15483 16.6392L4.11383 15.0585C4.55722 14.2733 4.92141 13.3409 5.12813 12.4592L5.38693 11.1448C5.48391 10.6695 5.59065 10.1792 5.74618 9.71985C6.59157 7.22357 8.68566 5.06169 11.0283 3.93433L16.6703 1.42289C17.3103 1.11671 17.2804 1.02461 18.0038 1.19425L19.9637 1.58056L22.3347 1.81545L25.4237 1.81447C26.4549 1.76362 27.4965 1.63258 28.5165 1.47662L29.5971 1.2587C29.8848 1.18766 30.1689 1.09882 30.4638 1.06431C30.8621 1.02055 31.2606 1.36963 31.5942 1.53621L35.6955 3.372C36.3869 3.66844 37.0922 3.96184 37.7506 4.32668C39.6898 5.40135 41.6503 7.65337 42.2631 9.83366L42.6099 11.2971C42.7887 12.2043 42.8969 12.7318 43.1933 13.6175L43.4625 14.2418C43.6727 14.7652 44.0241 15.2956 44.328 15.7663C46.2025 18.6696 46.4191 21.3712 45.5521 24.6645L45.0031 26.555C44.6863 27.796 44.5246 29.1374 44.7196 30.4104C44.8514 31.2707 45.0986 31.7797 45.3764 32.5784C45.4454 32.777 45.461 32.9372 45.388 33.1407L45.3514 33.2384C45.0947 33.8434 44.3965 33.7199 43.8766 33.7671L42.176 33.938L39.3644 34.3958C38.7688 34.5304 38.9982 34.4961 39.139 35.1266L39.5154 36.8675C39.8688 38.5331 40.1699 41.5334 39.9403 43.2844C39.8008 44.3489 39.3974 44.2706 38.6266 44.3519C37.1988 44.5026 36.0391 45.3172 34.7941 45.9545C33.1259 46.8083 31.2383 46.9934 29.3899 46.8547C28.0365 46.753 26.7411 46.366 25.4021 46.2043C24.712 46.1211 22.9322 46.0917 22.2561 46.2319L19.5081 46.7428C18.9029 46.8323 18.2948 46.8634 17.6841 46.875ZM18.3794 2.84793C18.9942 5.8604 20.8009 8.64829 22.8907 10.8401C23.2349 11.2011 23.6161 11.6108 24.0181 11.9077C25.0244 11.024 26.157 9.8129 26.8972 8.72882C28.221 6.91105 29.0129 4.99565 29.585 2.84878L26.2831 3.30261C25.6577 3.35853 25.0617 3.37192 24.4311 3.37283L21.041 3.25784C20.3644 3.20617 19.6716 3.08626 19.002 2.97623L18.5791 2.88972C18.5191 2.87587 18.4397 2.84636 18.3794 2.84793ZM31.1203 2.98855L30.815 4.16043C29.9998 7.05472 28.2842 9.72458 26.2445 11.9032C26.0392 12.1225 25.8017 12.3406 25.6371 12.5914C26.084 12.5953 26.5103 12.4648 26.9403 12.3597C30.6066 11.1965 32.2787 7.89932 32.5682 4.29226C32.5844 4.09124 32.6244 3.89815 32.6311 3.69609L31.4366 3.14141C31.3545 3.09651 31.2104 2.98262 31.1203 2.98855ZM16.8559 3.01199L15.3747 3.72197L15.4414 4.6844C15.4542 4.90119 15.447 5.12694 15.4979 5.33854L16.0369 7.40877C16.7918 9.70757 18.8646 11.6857 21.1695 12.3763C21.5904 12.5053 22.014 12.5789 22.4519 12.6173L20.6517 10.6409C19.1997 8.89977 18.0274 6.86516 17.329 4.70446L16.935 3.22811C16.9212 3.16953 16.9247 3.03415 16.8559 3.01199ZM34.0568 4.34793C34.0244 4.60672 34.0345 4.86444 34.0156 5.12329C33.6801 9.73354 29.9836 14.1707 25.1509 14.1851C25.1258 14.4581 25.1373 14.7353 25.1378 15.0094L25.1396 16.3489C25.14 16.6898 25.1997 17.1512 25.0557 17.4612L25.0414 17.4925C24.7876 18.0289 24.0377 18.2272 23.526 17.9554C23.1102 17.7346 22.8696 17.2944 22.8668 16.8388L22.8667 14.2341L22.1806 14.1585C17.2471 13.4943 14.1032 9.23104 13.897 4.38774C13.0696 4.73113 12.2266 5.04702 11.4296 5.46013C8.9904 6.7244 7.37621 8.83415 6.85149 11.5041C6.49983 13.2935 6.27258 14.3136 5.36443 15.9408L4.47867 17.3909C3.80509 18.575 3.46328 19.8743 3.46151 21.2285C3.46104 21.5934 3.4294 21.9973 3.49396 22.3558L3.57525 22.9783C3.64702 23.3973 3.7341 23.8773 3.8829 24.2785L4.53441 26.674C4.61072 26.9108 4.63524 27.196 4.67232 27.4431C4.91949 29.0905 4.81782 30.6516 4.37298 32.2459L9.40965 32.9746C9.52224 32.4132 9.71972 31.8684 9.89536 31.3243L11.019 28.0315C11.7197 25.8849 11.8764 24.7608 11.5688 22.5354L10.7596 17.2017C10.6161 16.2943 10.3885 15.3378 10.4981 14.4152C10.6422 13.2015 11.2747 12.08 12.3019 11.4018C12.7891 11.0802 13.67 10.6414 14.0838 11.2951C14.4921 11.9402 14.0378 12.3221 13.4861 12.5191C12.269 12.9538 11.8643 14.2772 12.0429 15.4536L13.2048 23.3154C13.4588 25.8064 12.7861 27.5439 12.0018 29.8742L11.3394 31.8753C11.2196 32.2653 11.0768 32.6569 10.9772 33.0524L10.3564 35.4143C10.1857 36.0702 10.006 36.769 9.92508 37.4424L9.50129 40.9586C9.44068 41.3859 9.50504 41.8496 9.52768 42.2789C9.55065 42.7133 9.40557 42.8132 9.81675 42.8732L10.2941 42.9657C11.638 43.2894 12.7015 43.9738 13.9143 44.6001C15.1954 45.2618 17.1846 45.5065 18.6372 45.2908L22.1886 44.6701C22.3443 44.6316 22.5256 44.642 22.6857 44.6413L24.832 44.6402C25.2172 44.6408 25.5459 44.6499 25.9221 44.7188L27.2697 44.9992C29.0826 45.3729 31.4584 45.5962 33.2578 44.9598C34.8666 44.3908 36.1064 43.1933 37.8718 42.9076C38.0463 42.8794 38.2881 42.898 38.4477 42.8448C38.4821 41.7681 38.4811 40.7309 38.371 39.6614L38.243 38.4729C38.0839 37.285 37.8247 36.1036 37.5312 34.9422L36.2745 30.709C35.7479 29.1798 35.1378 27.6969 34.8003 26.1096C34.5064 24.7269 34.5562 23.7258 34.7808 22.3714L35.7558 16.5724C35.8349 16.0298 35.9968 15.4519 35.9956 14.9035C35.9901 12.4309 34.028 12.7262 33.822 11.8948L33.8131 11.8599C33.7178 11.4596 33.9605 11.07 34.36 10.9777C35.5311 10.7073 36.9218 12.3758 37.2374 13.3245L37.3484 13.6494C37.5597 14.2591 37.5201 15.0291 37.438 15.6539L36.4308 21.8001C36.3188 22.4471 36.0349 23.795 36.1368 24.441L36.4783 26.5417L38.2049 31.6526C38.368 32.0863 38.4491 32.5459 38.623 32.9702L43.6123 32.2296C43.0446 30.3176 42.987 28.4882 43.45 26.5286L44.2462 23.7192C44.4735 22.8062 44.5369 22.0738 44.5335 21.1479C44.5285 19.8134 44.0905 18.3592 43.4225 17.2088L42.7569 16.1511C41.9781 14.8617 41.4695 13.5297 41.1927 12.0487C41.1366 11.7482 41.1148 11.4366 41.0475 11.138C40.6464 9.35811 39.5835 7.56524 38.1436 6.41816C37.4982 5.90404 36.7595 5.53279 36.015 5.1884L34.0568 4.34793Z" fill="black"/>
</svg>
