<svg width="48" height="48" viewBox="0 0 48 48" fill="none" xmlns="http://www.w3.org/2000/svg">
<path d="M38.8703 35.0674C38.5646 35.0031 38.2758 34.8838 37.9843 34.7755L36.961 34.4094C33.8055 33.3224 31.2676 32.1511 28.6378 30.1289L27.6358 29.2932C27.2568 28.9604 26.8699 28.6431 26.5141 28.2845C25.9994 28.5318 25.4653 28.7603 24.8849 28.7774L24.0105 28.7825C23.1861 28.7838 22.4394 28.8379 21.6612 28.5197L21.2769 28.3536C21.077 28.264 20.5161 28.9204 20.3212 29.0983C18.1703 31.0622 15.655 32.5664 12.9758 33.6945L9.9402 34.8235C9.63227 34.9425 9.33166 35.0724 9.00134 35.1163L8.96491 35.1209C7.60179 35.2988 6.4369 34.4067 6.10484 33.1062C5.98202 32.6251 6.07756 32.1376 5.95296 31.667L5.90754 31.4574C5.73101 30.7219 5.44573 29.9711 5.13893 29.2803C5.03529 29.0469 5.06937 29.0467 4.83588 28.9577C4.18151 28.7085 4.07551 27.9588 3.92842 27.3589L3.59314 25.8647C3.16182 23.6751 3.2427 21.3883 3.74417 19.2188C3.95671 18.2992 4.24319 17.2412 5.07696 16.6883C5.48646 16.4168 5.42998 16.4574 5.60163 15.9723C6.0761 14.632 6.41693 13.2343 8.11868 12.955L8.39552 12.9239C9.15991 12.8103 10.2529 13.2176 10.9725 13.4529L14.168 14.6263C16.3269 15.5437 18.3132 16.7361 20.2049 18.1166C20.9788 17.3583 21.9124 16.8999 23.0015 16.8922L23.7558 16.8909C25.1382 16.8924 26.0553 16.8473 27.2202 17.8174L27.5943 18.138C27.6788 18.2123 27.6997 18.1393 27.7917 18.0767L30.6258 16.2596C31.6909 15.6193 33.3289 14.8566 34.477 14.4024L37.0261 13.481C39.0844 12.7957 40.7859 12.3819 41.9066 14.6133L41.9996 14.8242C42.175 15.2672 42.2952 15.7431 42.4046 16.2062C42.9635 16.2262 43.44 16.3603 43.6968 16.9217L43.7814 17.1211C43.9286 17.4713 43.9733 17.8772 44.0633 18.2461C44.5546 20.2592 44.7731 22.1439 44.6266 24.2216L44.5324 25.0547C44.3885 26.2924 44.137 27.7312 43.1498 28.5948C42.9815 28.742 42.9693 29.0144 42.8892 29.22L42.2723 30.7632C42.1397 31.1424 42.0077 31.5651 41.9834 31.9681C41.9667 32.2442 42.0276 32.6127 41.9475 32.8737C41.8213 33.2849 41.7686 33.6244 41.5317 34.0078L41.4582 34.1215C40.8553 34.9701 39.8509 35.2392 38.8703 35.0674ZM8.62146 14.4462C8.48562 14.4623 8.36004 14.4839 8.22757 14.5195L8.19532 14.528C7.43749 14.7355 7.20176 16.0058 6.99476 16.633L9.59745 16.8643C12.3243 17.167 13.8707 17.7541 16.3617 18.7812L18.2086 19.5241L18.9095 19.8173C19.015 19.8598 19.1497 19.9239 19.2626 19.9333L19.3397 19.3907C19.2881 19.3107 19.1723 19.2583 19.0946 19.2026L18.3698 18.6914C16.0329 17.1029 13.563 15.9156 10.8721 15.0352C10.2389 14.828 9.28901 14.4328 8.62146 14.4462ZM39.329 14.4449C38.7423 14.5471 38.1925 14.7408 37.6251 14.9138C34.8793 15.7509 32.3087 16.9932 29.8925 18.5373L28.9226 19.1986C28.6985 19.3674 28.3515 19.5298 28.5193 19.8559C28.5951 19.8738 29.4364 19.455 29.561 19.3974C31.9925 18.2677 34.3596 17.1984 37.0313 16.806L40.8994 16.3725C40.735 15.61 40.3421 14.3444 39.329 14.4449ZM42.2974 17.8008L37.5378 18.2991C34.9787 18.6711 33.0891 19.4641 30.772 20.5373L29.0122 21.3938C28.8939 21.4547 28.7685 21.4803 28.6634 21.5621L28.6608 24.1378C28.6563 24.2424 28.637 24.3542 28.6497 24.4576L31.0495 25.7574C33.1777 26.6011 34.7855 26.7573 37.0782 26.9385L41.1492 27.2462C41.5197 27.2828 41.8954 27.3282 42.2676 27.3396C42.8912 26.4832 42.9719 25.3611 43.0616 24.3424L43.1484 22.3733C43.1473 21.9849 43.1489 21.5908 43.0935 21.2054L42.7116 19.0195C42.6246 18.6141 42.5299 18.1882 42.3811 17.8008H42.2974ZM5.75182 18.164C4.97023 19.2301 4.68011 22.7631 4.89073 24.2464L4.90277 24.3204C4.93573 24.5248 4.94102 24.7327 4.96882 24.9375L5.2219 26.3327C5.26563 26.5476 5.30257 26.8054 5.38156 27.0081C5.61677 27.6118 5.35441 27.5211 6.02079 27.4137L16.2959 25.5847L17.0743 25.3764C17.6371 25.2028 18.2099 24.9728 18.7526 24.7439C19.1063 24.5948 19.1267 24.6659 19.1265 24.2676L19.1255 21.518C19.0225 21.457 18.9241 21.4431 18.8121 21.4082L16.9516 20.6847C13.3493 19.2153 11.7222 18.5064 7.72024 18.2499L5.75182 18.164ZM22.8831 18.448C21.1486 18.6087 20.6187 19.865 20.6153 21.3706L20.6116 24C20.6066 26.0544 21.272 27.251 23.5554 27.2585C24.0084 27.26 24.4592 27.2761 24.9087 27.2162L24.9322 27.2129C26.2517 27.0443 27.1821 25.9907 27.171 24.6682L27.1645 21.9362C27.1644 21.4303 27.1734 20.9399 27.1072 20.4375C26.9701 19.3971 25.9986 18.5672 24.9775 18.4546C24.6547 18.4189 24.3042 18.4439 23.9786 18.4439L22.8831 18.448ZM19.2946 26.1445C17.7743 26.8404 16.4595 27.1811 14.8126 27.4684L7.40173 28.7488C7.14312 28.7949 6.8426 28.8201 6.59796 28.9119L6.98538 29.8594C7.0924 30.1287 7.15273 30.4121 7.25749 30.6774L7.32251 30.9068C7.39292 31.2441 7.55674 32.7967 7.64191 32.9531L7.76909 33.1886C8.2631 33.7837 8.79832 33.6176 9.43366 33.3753L10.1077 33.1265C13.1767 32.0326 16.0512 30.6829 18.5689 28.5782L20.0002 27.312C19.7481 26.925 19.5418 26.5658 19.3534 26.1392L19.2946 26.1445ZM28.4575 26.1445C28.2391 26.5501 28.0222 26.9582 27.7411 27.3246L27.7555 27.337C27.9555 27.5104 28.133 27.7115 28.3262 27.8926C30.9308 30.334 34.1212 31.7814 37.4424 32.9561L38.4896 33.3433C39.0406 33.5462 39.7094 33.7958 40.1689 33.2797L40.2932 33.1169C40.5088 32.6633 40.4607 32.1206 40.5126 31.6276C40.6172 30.6338 41.059 29.7132 41.4526 28.809L37.3831 28.5186C34.3569 28.306 32.0726 28.0736 29.3179 26.6184L28.8406 26.3594C28.7236 26.2894 28.5879 26.1843 28.4575 26.1445Z" fill="black"/>
</svg>
