<svg width="48" height="48" viewBox="0 0 48 48" fill="none" xmlns="http://www.w3.org/2000/svg">
<path d="M20.2017 35.2104L14.6956 33.7748L12.3996 33.0056C11.8403 32.8035 11.822 33.063 11.218 33.2582C9.50993 33.8101 7.66535 33.3387 6.20847 32.3586C5.0726 31.5945 4.53882 30.7236 4.70008 29.2803C4.834 28.0817 5.63665 27.7945 6.53899 27.243L13.3672 23.2709C13.5291 23.179 14.9591 22.3974 14.9911 22.3384C15.0129 22.2983 15.0235 22.2106 15.0356 22.1639L15.4565 20.8066C17.0299 16.4784 20.8203 13.3927 25.3119 12.5197C26.2004 12.3469 27.0962 12.2917 27.9977 12.2432C33.6747 12.1828 40.3249 14.7308 42.6026 20.3337C42.81 20.8436 42.8927 21.1463 43.0386 21.6588L43.0471 21.6879C43.2809 22.5102 43.3119 23.6505 43.3115 24.4962L43.297 29.2386C43.2931 29.3043 43.2884 29.3904 43.2505 29.4466L43.2222 29.4847C42.9564 29.8619 42.6377 29.7776 42.2317 29.7291L41.0505 29.5609C40.73 29.515 40.7738 29.533 40.5089 29.7188L37.7751 31.5909C34.4051 33.7365 30.4274 35.4762 26.3888 35.7033L23.8283 35.703C22.6211 35.6362 21.3888 35.427 20.2017 35.2104ZM28.3292 13.5656C23.5391 13.5614 19.0601 15.9377 17.0617 20.3675C17.0135 20.4743 16.9997 20.642 16.916 20.7211L18.9171 20.7296C19.1334 20.7405 19.3471 20.7825 19.5629 20.8005L22.0593 21.0849C24.0812 21.3846 26.0962 21.7631 28.0795 22.2651L31.8005 23.2749C31.8349 23.2834 31.824 23.2812 31.8656 23.3L34.6209 24.214L34.2122 20.6722L33.6869 17.7865C33.5189 17.0067 33.3503 16.2173 33.104 15.4574L32.1499 21.5197C32.0742 22.3087 30.7768 22.2604 30.8942 21.4104L32.068 13.9575C31.223 13.765 30.3691 13.6304 29.503 13.5784L28.3292 13.5656ZM34.2553 14.5901L34.79 16.6643L35.6621 21.6966C35.7118 21.9091 35.7005 22.1514 35.7303 22.3696L35.9579 24.6756C37.0542 25.1644 41.2858 26.1182 42.0229 26.0042L42.0235 24.4704C42.0223 23.4732 41.9514 22.5064 41.6542 21.5438C40.6942 18.4347 37.845 15.9925 34.8949 14.8205L34.459 14.649C34.4159 14.6322 34.3394 14.5899 34.2948 14.5874L34.2553 14.5901ZM16.9842 22.0362L16.4472 22.0515C16.4038 22.152 16.402 22.2658 16.3918 22.3737C16.5 22.4375 17.5789 22.4285 17.7954 22.4422L18.7677 22.5254C20.6384 22.6616 22.7871 23.0854 24.6112 23.4729L31.9451 25.3853L37.9564 27.4684C39.1035 27.8252 40.3095 28.0552 41.4881 28.2814L42.0178 28.3395L42.0195 27.3341C41.5664 27.2508 41.093 27.222 40.6353 27.1526C37.3331 26.6517 34.5151 25.4881 31.3524 24.501C28.6551 23.6591 25.8701 23.0037 23.0809 22.557L20.9002 22.2271L16.9842 22.0362ZM15.5784 23.7224C15.4374 23.7354 15.2928 23.7216 15.1624 23.7838L9.76882 26.8803C11.0383 26.9409 12.2486 27.1726 13.4829 27.4631L17.1063 28.424C19.2623 29.0621 21.9252 29.8137 24.1922 29.3919L24.5586 29.3323C25.9901 29.039 27.1147 28.277 28.2995 27.4694L30.089 26.2205C29.0831 25.862 28.0396 25.6338 27.005 25.3773L22.2051 24.3466L18.6191 23.825C17.6196 23.7241 16.583 23.6753 15.5784 23.7224ZM31.6777 26.6724L28.9889 28.5985C26.8979 30.0377 25.345 30.7815 22.8211 30.7821C19.7619 30.7828 17.1914 29.7598 14.2723 28.9908L10.5526 28.2616C9.25544 28.0475 7.69141 28.3053 6.49408 28.784C8.00965 29.9635 10.6031 30.9382 12.3806 31.5971C12.8148 31.758 13.277 31.8727 13.7019 32.0529L19.183 33.6562C24.5131 34.9119 29.7128 34.6443 34.5493 31.9524L39.0912 29.1269L31.6777 26.6724ZM6.04943 30.1292C6.04052 30.2625 6.05538 30.3272 6.12288 30.4415C6.7841 31.5617 8.7079 32.3009 10.0048 32.1487C9.56074 31.9153 9.09105 31.7251 8.6343 31.5183L6.21504 30.2113C6.1653 30.1816 6.1075 30.1369 6.04943 30.1292Z" fill="black"/>
</svg>
