<svg width="48" height="48" viewBox="0 0 48 48" fill="none" xmlns="http://www.w3.org/2000/svg">
<path d="M25.0412 38.6311L20.9694 38.615L19.0024 38.5019C13.5078 38.0953 4.83477 36.6285 1.76438 31.6701C1.18586 30.7359 0.677863 29.3962 0.956516 28.2931C1.37917 26.6197 2.67855 26.6014 4.03138 26.531C4.24435 26.52 4.44895 26.4762 4.66036 26.4637L10.2905 26.1608C10.5071 26.1538 10.7172 26.1145 10.9322 26.0995L11.7596 26.0552C11.9261 26.0396 11.889 25.8488 11.9235 25.7083L13.6479 18.9388L14.7372 15.4369C15.1089 14.304 15.8081 11.9911 16.6402 11.1191C17.8911 9.80817 21.3274 9.38428 22.9948 9.35742L24.9806 9.36427C25.586 9.37388 26.0074 9.43617 26.59 9.49102L27.3165 9.58566C28.2778 9.73069 29.212 9.96956 30.1155 10.3284C31.2229 10.7683 31.6178 11.3449 32.084 12.4098L32.6947 14.0035L34.5758 19.7223C34.6455 20.0375 34.7886 20.5236 34.8893 20.8463L35.1416 21.8082C35.1631 21.932 35.2108 22.0439 35.234 22.1674L36.1862 26.0601C36.5618 26.0919 36.998 26.0264 37.3618 26.1104C37.8228 26.2169 38.341 26.1617 38.8136 26.1923L41.8789 26.3695C42.0528 26.3812 42.2192 26.4283 42.393 26.4381L43.4142 26.4613C43.9783 26.4918 45.1988 26.5649 45.6329 26.7168L45.7736 26.7706C46.2894 27.0051 46.7611 27.5474 46.9689 28.066C47.3083 28.9126 47.0368 30.0048 46.6896 30.8227C45.6773 33.2074 43.2407 34.7986 40.9768 35.8353C37.0596 37.6291 32.5969 38.2936 28.3243 38.5289L25.0412 38.6311ZM23.3107 10.7405C21.6735 10.7631 19.3256 11.0361 17.8726 11.8616C19.3332 13.8015 22.4383 14.082 24.7091 14.0127C26.4765 13.8963 28.4952 13.4843 29.781 12.1902C29.8839 12.0866 29.999 11.9836 30.0764 11.8591C28.9536 11.127 26.5513 10.8177 25.2658 10.7534L23.3107 10.7405ZM17.0457 13.0426C16.3708 14.5748 15.9061 16.1883 15.4138 17.7848L13.9953 22.9125C14.4031 23.0089 14.8153 23.0385 15.2275 23.1006L20.304 23.58C20.4569 23.5914 20.6093 23.6264 20.7658 23.6338L22.6601 23.6533C22.8744 23.6581 23.0865 23.6925 23.3016 23.6959L24.7736 23.695C24.9584 23.6888 25.1401 23.6582 25.3257 23.6549L27.1917 23.6369L30.0932 23.4277L32.7478 23.1097L33.6827 22.9712C33.7769 22.9562 33.9791 22.9433 34.0472 22.884L31.7246 15.2779C31.4618 14.5398 31.2238 13.7755 30.8926 13.0649C27.7206 16.0888 20.6575 16.2583 17.4368 13.3942C17.3051 13.277 17.1855 13.1508 17.0457 13.0426ZM13.6603 24.2741L13.1546 26.3195C13.1395 26.3827 13.1113 26.4558 13.1189 26.5204C13.4097 26.5832 13.7073 26.6089 14.0013 26.652L16.3008 26.9377L20.8211 27.297L26.966 27.2972C27.305 27.2862 27.6403 27.2297 27.9794 27.2129L28.9228 27.1903L33.8914 26.6615C34.0659 26.6368 34.2625 26.63 34.432 26.585L34.9174 26.4936L34.394 24.2741L29.0996 24.9125L27.097 25.0463L21.6544 25.0519C21.4866 25.0474 21.321 25.02 21.1536 25.0134L17.803 24.8123L14.4647 24.3971C14.2025 24.3591 13.9171 24.3396 13.6603 24.2741ZM11.7822 27.456L11.1126 27.4861C11.0056 27.4949 10.904 27.5198 10.7966 27.5268L9.20722 27.6193C8.50334 27.6629 7.77664 27.6904 7.06925 27.7285C7.17734 28.1016 7.29242 28.4472 7.48091 28.7906C9.27903 32.0658 15.1468 33.3108 18.4643 33.7448L21.7668 34.0144L25.8606 34.0143L29.0353 33.7863L31.6636 33.405C32.0796 33.324 32.5167 33.2614 32.9251 33.1493L33.7038 32.9548C35.2677 32.5046 36.8053 31.9422 38.1933 31.0808L38.9318 30.5732C39.8067 29.9105 40.7189 28.9193 40.9281 27.807C40.9369 27.7607 40.9315 27.7809 40.9499 27.7345L36.0312 27.4578C34.1309 30.653 29.6596 31.8874 26.1334 32.222C25.6615 32.2668 25.1845 32.2553 24.711 32.266L22.0314 32.223C18.7467 31.9463 13.7468 30.6661 12.1194 27.6345C11.9972 27.4067 12.0404 27.4498 11.7822 27.456ZM5.66389 27.8082C5.41836 27.8223 5.17231 27.8217 4.92739 27.8415L4.26507 27.9058C3.07798 27.9639 1.99865 27.7646 2.30791 29.4372C3.15247 34.0046 10.9695 35.9927 14.808 36.5947L19.3947 37.124L21.1828 37.2294L26.5218 37.234C26.7693 37.2251 27.0125 37.1716 27.2608 37.1591L32.3087 36.7467C35.9835 36.27 41.5818 34.9091 44.2305 32.0314L44.4855 31.749C45.12 30.9886 45.8444 29.9263 45.7646 28.8812C45.7341 28.4822 45.482 28.1161 45.0939 28.0023L45.0603 27.992C44.6897 27.8829 44.2483 27.928 43.8634 27.9044L42.2941 27.7935C42.0654 30.1791 39.5638 31.9684 37.5939 32.9342C34.5648 34.4195 31.1194 35.0388 27.7758 35.2531L25.4767 35.3435C25.3087 35.3485 25.1431 35.3763 24.9748 35.3798L22.1841 35.3456C21.7348 35.3325 21.2805 35.3554 20.8322 35.3263L20.1631 35.2523C17.5902 35.0505 15.0175 34.6673 12.5685 33.827C10.0677 32.9688 6.12617 30.9205 5.7417 27.9488C5.73425 27.8916 5.75328 27.8331 5.69136 27.8116L5.66389 27.8082ZM14.3116 28.1129C15.915 29.6056 18.7554 30.3928 20.8595 30.6809L22.2776 30.8653C22.5416 30.8906 22.8115 30.8888 23.0767 30.8968L25.6698 30.8739C27.9046 30.7161 30.4647 30.045 32.4278 29.0188C32.8532 28.7715 33.3236 28.5032 33.6913 28.1729L33.731 28.1115C33.4195 28.1644 33.0833 28.1764 32.7673 28.2118L29.045 28.5692L27.9459 28.601C27.673 28.6168 27.4027 28.6573 27.129 28.665L21.0555 28.6643L18.9621 28.5676L14.9411 28.1762C14.7335 28.1494 14.5213 28.1062 14.3116 28.1129Z" fill="black"/>
<path d="M27.5478 17.5719L25.33 17.9841C24.4985 18.0822 23.1585 18.0582 22.3238 17.9938C21.3381 17.9177 18.6233 17.4979 18.2587 16.7663L18.2461 16.7392C18.028 16.2848 18.27 15.9282 18.7035 15.8005C19.04 15.7813 19.2707 15.9322 19.5798 16.0387C21.7388 16.7827 24.3954 16.9061 26.6138 16.3517C26.8225 16.2996 27.2373 16.1346 27.4387 16.1862L27.4688 16.1948C28.199 16.3803 28.2746 17.2688 27.5478 17.5719Z" fill="black"/>
</svg>
