<svg width="48" height="48" viewBox="0 0 48 48" fill="none" xmlns="http://www.w3.org/2000/svg">
<path d="M24.774 46.5693C24.1883 46.5739 23.7817 46.4356 23.2902 46.4174L20.9248 46.3944C20.4697 46.3683 19.9948 46.2953 19.543 46.2298C16.8185 45.8346 13.5203 45.0711 12.4673 42.1684C12.1948 41.4174 12.1641 40.7031 12.2759 39.9142L12.361 39.2726C12.3891 39.0877 12.3895 38.8947 12.4052 38.708L12.5046 37.1293C12.5227 36.8429 12.5615 36.5652 12.565 36.2756L12.5715 34.5609C12.5775 34.374 12.5687 34.1467 12.6124 33.9661C12.7079 33.5722 12.6552 33.1026 12.6777 32.6976C12.693 32.4232 12.748 32.1531 12.7582 31.8787L12.77 30.0353C12.7746 29.7568 12.8169 29.4811 12.8317 29.2034L12.8655 28.3819C12.6332 28.9482 12.3173 29.4942 12.0307 30.0349L9.99409 33.8962C9.88539 34.1256 9.76684 34.4006 9.72489 34.6507C9.68012 34.9174 9.74992 35.2004 9.62612 35.4526L9.52089 35.6677C8.72336 37.0638 5.97494 35.8845 4.94486 35.26C4.02593 34.703 3.74132 33.9467 3.97132 32.9348L6.30029 23.9767L9.64675 10.3073C9.70126 10.0219 9.7307 9.73857 9.81072 9.4577C10.3187 7.67392 11.9053 6.26335 13.6783 5.80351C14.2328 5.65974 14.7977 5.60124 15.3527 5.47206C15.4245 5.01624 15.6911 4.55741 15.9658 4.19558L16.221 3.89973C17.8909 2.17098 20.8468 1.52535 23.2139 1.48278C26.2844 1.38696 31.7219 1.9151 32.7169 5.50454C35.0235 5.66523 37.1042 6.6939 38.0017 8.94395C38.1339 9.2754 38.1925 9.6077 38.2857 9.94726L39.3601 14.5718C39.3826 14.7002 39.4296 14.82 39.453 14.9484L41.1395 21.7149C41.1622 21.8393 41.2102 21.9538 41.2329 22.0782L41.4429 22.9133C41.4508 22.9521 41.4587 22.9876 41.4706 23.0256L41.5157 23.1976C41.5248 23.2435 41.5315 23.2829 41.547 23.3274L41.891 24.6973C41.9132 24.8234 41.9596 24.9407 41.9839 25.0665L42.1708 25.7803C42.193 25.9051 42.24 26.0201 42.2647 26.1446L42.6424 27.5743C42.8023 28.5565 43.2058 29.4867 43.393 30.4606L43.7662 31.869C43.8845 32.5419 44.3321 33.3535 44.1228 34.0172L44.0989 34.0935C43.6238 35.6896 40.5243 36.49 39.0896 36.0559C38.2124 35.7905 38.4175 34.7578 38.0433 33.9476L35.1434 28.4608C35.1192 28.6618 35.1384 28.8456 35.1506 29.046L35.2248 30.0939C35.2469 30.5809 35.2004 31.0806 35.2449 31.5659C35.2588 31.7165 35.318 31.8556 35.3252 32.0075L35.3401 33.0001C35.3452 33.4025 35.4137 33.7861 35.422 34.1882L35.4955 36.5965C35.5037 36.919 35.548 37.2382 35.5785 37.5587L35.7593 39.4217C35.8104 39.8615 35.8328 40.3251 35.9227 40.7579C36.1543 41.8727 35.8432 42.3566 35.1872 43.1319C32.5468 46.2521 28.5954 46.5684 24.774 46.5693ZM23.3957 2.98317C21.8247 3.01341 17.2358 3.77256 16.8719 5.69542L16.8663 5.72101C16.6168 6.93174 18.718 7.66032 19.4924 8.13568C21.2547 9.21737 22.562 10.9688 23.4718 12.7956L23.7966 13.4949C23.8706 13.6742 23.9109 13.8694 24.0169 14.0329L24.2355 13.6122C25.1998 11.3825 26.6983 9.37079 28.7867 8.08478L29.7383 7.51459C32.3582 5.95192 30.982 4.65768 28.8128 3.76407C27.6923 3.30247 26.3824 3.05927 25.1671 2.99313L23.3957 2.98317ZM15.5784 7.06651C13.0499 7.32226 11.6308 8.1669 11.146 10.7038L9.44214 17.9181L6.13225 30.8321L5.46423 33.3239C5.2562 34.1002 7.13561 34.5517 7.65231 34.6723L8.09969 34.7639C8.46826 33.0919 9.14308 32.112 9.9429 30.624L12.6404 25.5588C12.8414 25.1277 12.912 24.8576 12.9797 24.3786L13.7474 17.7329C13.8179 17.2257 13.9068 16.3475 14.7117 16.5541L14.7795 16.5716C15.0751 16.6484 15.283 16.9266 15.2821 17.2329C15.2789 18.3136 15.1193 19.3892 15.0025 20.461L14.4891 25.9571C14.4613 26.2166 14.4355 26.4738 14.4274 26.7352L14.3063 30.273C14.2976 30.5224 14.2578 30.7659 14.2556 31.0195L14.2353 32.2501C14.2314 32.3254 14.1823 32.6539 14.2122 32.7053C14.4704 33.1487 14.9762 33.5467 15.4799 33.6687L15.8854 33.7414C17.3665 33.7813 18.008 32.5483 18.0135 31.2524L18.0112 30.2419C18.0068 29.783 18.0056 29.2537 18.598 29.1548L18.6345 29.1483C18.9429 29.0973 19.2665 29.2339 19.4066 29.5196L19.42 29.5461C19.4914 29.6947 19.4784 29.8576 19.4777 30.018L19.4772 30.5825C19.4779 31.1017 19.5208 31.6666 19.4585 32.1798C19.1568 34.666 16.297 36.0976 14.1717 34.7049L14.0756 34.6367C14.0361 34.9781 14.0561 35.3355 14.056 35.6796L14.0413 38.0686L13.8496 40.0559C13.8135 40.4139 13.7053 40.7595 13.7811 41.1212L13.9736 41.754C14.6576 43.895 18.9164 44.6493 20.8831 44.8129L23.2526 44.8762L23.2547 17.9093C23.2546 17.251 23.252 16.6362 23.113 15.9883C22.6604 13.8783 20.9419 10.9562 19.0714 9.7134C17.8575 8.90677 16.3592 8.46038 15.6408 7.06595L15.5784 7.06651ZM32.4169 7.06356L32.4009 7.08868C31.4906 8.50173 29.9368 8.99799 28.6599 9.95331C26.5584 11.5255 25.0675 14.5091 24.7493 17.0781C24.7024 17.4566 24.7324 17.8705 24.7315 18.2533L24.7304 43.0891C24.7307 43.7285 24.6997 44.3872 24.7431 45.0242L26.8323 45.0044C29.1679 44.8765 31.847 44.3439 33.5752 42.6589C33.7702 42.4688 34.4631 41.7708 34.4605 41.5355L33.9017 34.6259C33.1262 35.047 32.2635 35.3605 31.3682 35.2115C30.0554 34.993 28.8774 33.8612 28.5886 32.5704C28.4803 32.0864 28.465 30.2792 28.5219 29.718C28.5872 29.073 29.5902 28.9078 29.9062 29.5196L29.928 29.5597C29.9971 29.6977 29.9739 29.9219 29.9746 30.0752L29.9754 31.2241C29.9768 31.7034 30.0018 32.1586 30.2238 32.5899L30.2446 32.6312C30.4879 33.1089 30.9235 33.4854 31.4391 33.6429L31.6418 33.686C32.5615 33.8779 33.2813 33.4084 33.791 32.6605C33.886 32.521 33.7821 31.5074 33.7764 31.2857L33.6398 27.4103C33.6323 27.2412 33.5958 27.0751 33.5888 26.9064L33.5654 26.0274L32.8209 18.075C32.7999 17.8038 32.7204 17.4577 32.7654 17.1932C32.8859 16.4844 33.8289 16.2844 34.1265 16.9571L34.1377 16.979C34.2243 17.1511 34.2083 17.324 34.2334 17.5069L34.8287 22.7462C34.946 23.4841 34.9941 24.2427 35.1557 24.9728L35.2592 25.3357C35.3201 25.5333 35.4405 25.736 35.5363 25.9192L39.1731 32.7487C39.3231 33.0517 39.4924 33.3679 39.59 33.6915L39.8172 34.4415C39.8358 34.5179 39.8457 34.6119 39.8856 34.6794C40.6771 34.6367 41.9228 34.414 42.4896 33.7785L42.5987 33.6475C42.5578 33.1913 42.3896 32.738 42.269 32.2973L40.2587 24.5479L36.895 10.9281C36.6001 9.67346 36.5183 8.91948 35.4495 8.02126C34.4183 7.15459 33.5201 7.32479 32.4169 7.06356Z" fill="black"/>
<path d="M28.2811 7.45655C27.9823 7.49962 27.6683 7.48102 27.3675 7.48116L20.2533 7.48097C20.1235 7.48088 19.9076 7.50591 19.7898 7.46011C18.9655 7.13972 19.1362 6.32072 19.8534 6.02691L28.0137 6.01758C28.321 6.01964 28.6313 6.08189 28.796 6.38184L28.8106 6.40988C29.0737 6.90356 28.7171 7.28841 28.2811 7.45655Z" fill="black"/>
</svg>
