<svg width="48" height="48" viewBox="0 0 48 48" fill="none" xmlns="http://www.w3.org/2000/svg">
<path d="M27.5859 38.0004C26.3143 36.5062 25.7695 34.6812 25.2481 32.8287L24.4646 29.8215C24.3098 29.1591 24.0898 28.4993 23.9857 27.8269L23.0625 31.1836C22.1611 34.1675 20.9998 39.1929 17.5311 40.1892C15.2785 40.8362 12.008 40.3384 9.74424 39.9935C7.58855 39.6652 4.8173 38.9941 3.48519 37.1599C2.0849 35.2318 3.27016 33.2007 4.11495 31.3414L4.92122 29.3246C5.35561 28.121 5.63986 26.8502 5.9311 25.6055L6.62654 22.3711C6.70196 21.9681 6.78821 21.5514 6.8319 21.1437L6.98977 18.9497C7.07241 17.9639 7.1694 18.5048 7.41736 17.9398C7.66341 17.3793 7.8271 16.7591 8.0243 16.1788L8.81194 14.146C8.8719 13.9999 9.40426 12.9872 9.40702 12.9603C9.43051 12.7324 9.4118 12.4837 9.41232 12.254L9.41546 10.8151C9.41701 10.1946 9.3983 9.68993 10.1327 9.52053L37.2327 9.5127C38.3728 9.51204 38.4798 9.67428 38.4799 10.9173L38.4751 12.35C38.4678 13.3296 38.7208 13.3549 39.1052 14.2613L40.139 16.814C40.4723 17.868 40.8131 18.9197 40.9642 20.0195L41.2496 22.3594L41.9065 25.4883C41.9942 25.8049 42.0944 26.122 42.1716 26.4411L42.562 27.7149L43.5103 30.1991L44.1687 31.6999C44.4315 32.2123 44.6187 32.7867 44.8129 33.3282L44.9138 33.6665C45.1487 34.3531 45.1516 35.3872 44.977 36.0821C44.3153 38.7158 41.3735 39.3513 39.0531 39.7614L36.3806 40.1353C36.0617 40.1667 35.7466 40.2218 35.4263 40.2412L33.7863 40.2605C31.3373 40.2678 29.3803 39.8777 27.5859 38.0004ZM11.7837 10.7638L10.6201 10.7797C10.575 11.1494 10.5814 11.6374 10.6237 12.009L36.0584 12.016L37.2527 12.0188C37.3438 11.6506 37.2278 11.1577 37.2811 10.7621L11.7837 10.7638ZM10.9817 13.2236C10.8457 13.2357 10.6972 13.2327 10.5637 13.2567C10.1541 14.0337 9.77958 14.8536 9.47813 15.6787L8.84729 17.5647C9.07993 17.4485 9.28983 17.3296 9.50518 17.1834C10.6138 16.3907 11.6858 15.0019 11.918 13.6328L11.973 13.2349L10.9817 13.2236ZM13.2495 13.2241C13.2173 13.3849 13.2109 13.5417 13.1801 13.6952C12.6798 16.1959 10.668 18.4636 8.19675 19.1441C8.13132 19.5743 8.14618 20.0239 8.11585 20.4595L7.93782 21.961C7.9029 22.2221 7.83451 22.4874 7.78191 22.7461L6.85843 26.8767C6.48652 28.4008 6.07754 29.9079 5.43469 31.3452L4.58344 33.1184C3.9992 34.448 3.62677 35.6572 4.79246 36.8284C6.08429 38.1264 8.17055 38.4492 9.89654 38.7539L13.6739 39.2042L15.0586 39.2124C18.1342 39.206 19.1138 38.3357 20.3626 35.4508C20.6491 34.789 20.902 34.122 21.1173 33.4336L23.1888 26.3055C23.2646 26.0015 23.3216 25.6679 23.4247 25.3735C23.5944 24.8885 24.3159 24.6848 24.5417 25.2125L24.5626 25.2657C24.6661 25.5132 24.699 25.8134 24.7573 26.0773L25.3215 28.3183C25.3287 28.3564 25.3398 28.3894 25.3517 28.426L25.7226 29.9075C25.7603 30.0304 25.7721 30.1618 25.8139 30.2827L26.4458 32.7291C26.4533 32.7652 26.4645 32.7971 26.4765 32.8317L26.989 34.4571C27.536 36.0535 28.4321 37.5604 29.9998 38.3217L30.6975 38.6089L32.1053 39.0097C32.5015 39.0856 32.9843 39.0415 33.3895 39.0423L35.0824 39.0124L38.7261 38.5499C42.614 37.9022 45.2048 36.9582 43.1435 32.3266L41.5946 28.6129L40.5463 24.9467L40.0563 22.428L39.5869 19.2111C39.5696 19.1264 39.5608 19.0352 39.5221 18.9574C38.9776 18.6957 38.4189 18.4536 37.9057 18.1318C36.3183 17.1364 35.0435 15.1407 34.9371 13.2327L27.4437 13.2224C26.3219 13.2229 26.4502 12.9619 26.4502 13.9572L26.4462 21.1639C26.4458 21.5119 26.5089 21.8723 26.3245 22.1836C25.5323 23.521 23.7813 22.9197 23.0641 21.8046C22.4147 20.7948 22.3034 18.8526 22.25 17.6014L22.2428 13.2205L13.2495 13.2241ZM23.4817 13.2224C23.4564 13.4425 23.4668 13.656 23.463 13.8772L23.454 15.1295C23.4525 16.469 23.3735 19.6557 23.9412 20.867L24.0096 21.023C24.1159 21.2826 24.3872 21.5654 24.6556 21.6603L24.7672 21.6946C24.8985 21.7333 25.044 21.744 25.1787 21.7149C25.2853 21.5882 25.2419 20.0419 25.242 19.8057L25.2406 13.2319C25.0858 13.1934 24.8644 13.22 24.7015 13.2202L23.4817 13.2224ZM36.1362 13.2228C36.178 13.6146 36.2847 14.0011 36.425 14.3672L36.5463 14.6772C36.9735 15.7812 37.9599 16.8713 39.0501 17.381C38.9456 17.0223 38.798 16.6729 38.6613 16.3253L37.2896 13.2474L36.1362 13.2228Z" fill="black"/>
</svg>
