<svg width="48" height="48" viewBox="0 0 48 48" fill="none" xmlns="http://www.w3.org/2000/svg">
<path d="M23.1735 41.5366L19.733 42.7558C18.0363 43.3365 15.8964 43.54 14.1424 43.188C9.43853 42.244 6.97192 36.9171 9.08537 32.6811C10.287 30.2727 11.7867 29.3572 14.1491 28.4182L21.7596 25.2849C22.0487 25.1628 22.0475 25.2425 22.0494 24.9108L22.0544 6.00384C22.0544 5.84953 22.0364 5.65856 22.0946 5.51395L22.1049 5.48953C22.2347 5.16609 22.4868 4.96598 22.8334 4.90279L36.8811 4.89599C37.6159 4.89567 39.3132 4.58014 39.3334 5.67393L39.327 28.9445C39.3155 29.4593 39.2525 29.9819 39.1585 30.489C38.4639 34.2373 36.5224 36.5296 32.9296 37.9888L23.1735 41.5366ZM25.5993 6.50048L23.6775 6.51234L23.6762 7.89543L35.8479 7.89351L37.1693 7.89342C37.319 7.89337 37.5602 7.92356 37.6975 7.88015L37.7001 6.50807L25.5993 6.50048ZM35.7084 9.49195L23.6907 9.495L23.6905 12.3226L25.7181 12.3251L36.494 12.325C36.8857 12.3259 37.3105 12.363 37.6969 12.3223L37.6932 9.50048L35.7084 9.49195ZM23.6972 13.968L23.6909 15.1104L37.6865 15.1249L37.6922 13.9688L23.6972 13.968ZM25.0681 16.7422L23.7124 16.7474C23.6778 16.7884 23.6786 16.8599 23.6772 16.9129L23.6787 25.3127C23.6781 26.4523 23.4492 26.3849 22.4024 26.8086L13.6327 30.407C14.1235 30.6383 14.6432 30.7865 15.1272 31.0421C16.9833 32.0221 18.6798 33.7448 19.3834 35.7579L19.6591 36.5514C20.1146 38.077 20.0258 39.5442 19.6158 41.0535L24.8733 39.1976L29.6997 37.4541C28.7771 35.3359 28.5491 33.0031 29.4146 30.8086C30.5657 27.8902 33.5566 25.6592 36.7328 25.6245L37.6882 25.6231L37.6892 16.7414L25.0681 16.7422ZM36.697 27.2657C33.5595 27.4464 30.8911 29.9021 30.5513 33.038C30.4602 33.8788 30.4888 34.9032 30.7881 35.7033L31.1246 36.6569C31.1506 36.7293 31.1915 36.819 31.2479 36.8716L31.4449 36.7967C36.1082 35.3174 38.0165 31.9435 37.6705 27.2749L36.697 27.2657ZM11.8754 31.6087C11.2177 32.3547 10.6614 33.0494 10.3282 34.0054C9.14453 37.4014 11.2447 41.2762 14.9626 41.6276C15.4654 41.6752 15.987 41.6491 16.4921 41.6477C16.8905 41.6369 17.3028 41.6385 17.695 41.5652C18.0264 40.7157 18.2926 39.9079 18.3159 38.9946C18.3954 35.8747 16.335 33.2318 13.5002 32.1144L11.8754 31.6087Z" fill="black"/>
</svg>
