<svg width="48" height="48" viewBox="0 0 48 48" fill="none" xmlns="http://www.w3.org/2000/svg">
<path d="M17.6893 39.4459L14.8723 39.0883C13.5427 38.8696 12.1505 38.4932 10.9165 37.9337L10.7013 39.1289C10.4748 40.3554 10.3319 41.1859 8.75167 40.9715L5.61381 40.4511C4.88828 40.316 4.17624 40.2433 3.87809 39.4494L3.82959 39.3197C3.48569 38.3554 4.46189 32.199 4.65753 31.0899L6.9003 20.8205L8.88264 14.0326C9.05847 13.4216 9.19075 12.7686 9.46731 12.1945C10.9905 9.03304 14.8216 7.05988 18.2223 6.95441C18.8576 6.93472 18.975 7.0304 19.4793 7.40558C21.4454 8.86813 26.4216 8.85449 28.4295 7.47735C28.7192 7.2786 28.963 7.03719 29.2995 6.91963C29.7172 6.90271 30.1271 6.97044 30.5388 7.03082C33.1989 7.42082 36.1934 8.76097 37.8435 10.9843C38.015 11.2154 38.1992 11.4678 38.3225 11.7284L38.5436 12.2C38.7398 12.5959 38.8759 13.1049 38.9809 13.5352L40.2012 17.6481C40.2105 17.6925 40.219 17.7315 40.2339 17.7745L40.5758 18.9844C40.5859 19.0286 40.5929 19.066 40.6082 19.1089L40.6751 19.3401C40.719 19.5659 40.8146 19.7805 40.8587 20.0114L41.1438 21.0874C41.1646 21.1994 41.2112 21.3045 41.2337 21.4177L42.4516 26.507C42.4909 26.7486 42.5738 26.9899 42.6192 27.2316L43.651 32.9077L44.148 37.1955C44.1881 37.6817 44.2237 38.1781 44.2239 38.6655C44.2244 39.9136 43.7202 40.2091 42.514 40.4119L39.2492 40.9805C38.6622 41.0897 38.1777 41.0923 37.7757 40.5616L37.7508 40.5283C37.3585 40.0103 37.2696 38.6688 37.0644 37.9484C34.7186 38.7392 32.8437 39.1784 30.3865 39.4378L28.3832 39.6247C28.0888 39.6457 27.7901 39.6348 27.4967 39.6656L25.1353 39.9753C24.111 40.0716 23.1083 40.0034 22.0947 39.8571L20.6748 39.6664C20.3461 39.6256 20.0064 39.6413 19.6752 39.6161L17.6893 39.4459ZM29.6059 8.32658C27.8607 9.65507 26.1892 9.85119 24.0206 9.84838C22.3271 9.84618 20.2923 9.69688 18.8786 8.68771C18.6616 8.53274 18.5614 8.3443 18.2816 8.34397C15.8873 8.34121 12.2649 10.0051 11.023 12.1737C12.3556 12.8317 14.3131 13.285 15.754 13.4915L17.1147 13.6526C17.4212 13.7082 17.7403 13.7023 18.0502 13.7339C19.6312 13.8951 21.2224 13.8966 22.8114 13.8988L27.7615 13.8902C27.9139 13.8865 28.0681 13.8625 28.221 13.854L30.1457 13.7133C32.3252 13.5256 34.6319 13.1684 36.6522 12.28C36.7577 12.2336 36.8784 12.1952 36.9741 12.1315C35.9103 10.2151 32.6017 8.72975 30.5637 8.41968L29.6059 8.32658ZM37.4815 13.4649C34.5596 14.6202 32.4158 14.9701 29.2344 15.1955C28.9975 15.2122 28.7629 15.2586 28.5259 15.2687L26.7655 15.2835C26.5108 15.2922 26.2629 15.3391 26.0079 15.3457L21.9787 15.3459L19.7545 15.2628C19.5699 15.2523 19.391 15.213 19.2084 15.202L18.1431 15.1575C16.2192 15.0171 14.2539 14.7654 12.4083 14.1807L10.4589 13.4718L8.91775 18.6596L7.23592 25.1367L6.42522 29.0017C6.36799 29.2858 6.29917 29.582 6.26008 29.868L10.6608 30.7663L11.2492 26.6133L12.3599 17.9C12.3813 17.6841 12.3673 17.4251 12.4368 17.2205L12.4481 17.1859C12.5296 16.9461 12.6662 16.8324 12.8837 16.7235C13.2547 16.626 13.5243 16.7537 13.6877 17.0977L13.7024 17.1272C13.8312 17.3934 13.7285 17.8806 13.6914 18.1702L13.4468 20.2667L34.5262 20.2705L34.3137 18.1364C34.2807 17.8476 34.173 17.4808 34.2843 17.2032L34.2978 17.1669C34.4335 16.8129 34.8194 16.6126 35.1788 16.7696C35.6394 16.9708 35.5935 17.5286 35.6403 17.9412L36.2919 23.3352L36.7031 26.2852C36.7364 26.4853 36.7404 26.6875 36.7871 26.8865L37.3465 30.7907L41.4742 29.9121C41.5572 29.8947 41.6633 29.8859 41.7378 29.8447L41.4195 28.1622L38.556 16.9102L37.5779 13.6275C37.5611 13.57 37.557 13.5103 37.5338 13.4553L37.4815 13.4649ZM13.24 21.7303L12.6856 26.2852L34.7635 26.2812L35.3165 26.277L34.7999 22.398C34.7788 22.1856 34.7803 21.9322 34.7326 21.7269L13.24 21.7303ZM12.4499 27.7212L11.1398 36.5342C12.5035 37.1283 13.9546 37.5357 15.4217 37.7735L21.3645 38.3785C21.9376 38.4498 22.4997 38.5543 23.0769 38.5974C24.2795 38.687 25.4278 38.5138 26.6199 38.3891L29.7837 38.0945C30.8927 37.984 33.3074 37.7536 34.3274 37.3607L34.357 37.349L36.9076 36.5633L35.5317 27.7226L12.4499 27.7212ZM6.01352 31.2357L5.37822 35.5692L9.79788 36.4039L10.4333 32.0713L6.01352 31.2357ZM41.9125 31.2539L37.5895 32.1162C37.6225 32.6909 37.7799 33.658 37.8865 34.2393L38.1095 35.5899C38.1443 35.8326 38.1499 36.0772 38.2062 36.3164L38.2146 36.3701C38.2613 36.3923 38.2377 36.3904 38.2849 36.379L42.6178 35.6083L42.0055 31.2539C41.9643 31.2444 41.9566 31.2445 41.9125 31.2539ZM5.21364 36.9604C5.11352 37.6022 5.12196 38.2668 5.1146 38.9152L9.17772 39.6688L9.24672 39.4048L9.57471 37.7202L5.71624 37.0563C5.55236 37.0276 5.37278 37.0072 5.21364 36.9604ZM42.7401 37.0196L38.4448 37.7528L38.7934 39.5338L38.824 39.6489C38.976 39.6463 39.13 39.6029 39.2807 39.5805L41.9295 39.1179C42.2569 39.0657 42.5972 39.0251 42.9128 38.9187L42.868 38.1329C42.8512 37.7674 42.8521 37.3856 42.7926 37.024L42.7401 37.0196Z" fill="black"/>
</svg>
