<?xml version="1.0" encoding="utf-8"?>
<!-- Generator: Adobe Illustrator 26.0.1, SVG Export Plug-In . SVG Version: 6.00 Build 0)  -->
<svg version="1.1" id="Layer_1" xmlns="http://www.w3.org/2000/svg" xmlns:xlink="http://www.w3.org/1999/xlink" x="0px" y="0px"
	 viewBox="0 0 806.75 356.94" style="enable-background:new 0 0 806.75 356.94;" xml:space="preserve">
<path d="M424.08,146.3c-0.68,2.71-1.39,5.16-1.91,7.65c-2.52,12.14-5.22,24.24-11.85,34.95c-1.62,2.62-3.64,5.12-5.92,7.17
	c-5.6,5.03-12.87,4.74-18.18-0.56c-7.94-7.92-10.49-17.97-10.84-28.73c-0.5-15.7,3.7-30.4,9.96-44.62
	c10.33-23.49,24.52-44.07,45.35-59.52c6.78-5.03,14.27-8.81,22.9-9.56c12.79-1.12,22.79,4.99,29.34,17.85
	c1.19,2.34,2.34,4.71,3.31,7.14c1.09,2.72,2.26,2.9,4.71,1.19c4.88-3.41,9.76-7.08,15.17-9.42c8.52-3.69,17.58-3.02,25.94,0.66
	c19.77,8.7,39.35,17.85,58.97,26.91c5.67,2.62,11.23,5.47,16.75,8.39c3.3,1.75,6.46,2.07,10.07,0.96
	c11.95-3.66,23.94-7.18,35.97-10.56c3.46-0.97,7.1-1.41,10.68-1.85c3.1-0.38,6.87-0.96,8.42,2.31c1,2.11,0.05,5.14-0.02,7.75
	c-0.38,0.18-0.76,0.36-1.13,0.55c1.24,0.27,2.49,0.48,3.7,0.82c2.99,0.84,6.21,1.27,8.87,2.72c5.08,2.77,4.88,8.56-0.27,11.18
	c-2.64,1.35-5.71,1.87-8.4,3.14c-1.2,0.57-2.78,2.07-2.78,3.15c-0.03,5.1-3.15,7.63-7.3,8.8c-8.65,2.44-17.38,4.63-26.18,6.46
	c-3.18,0.66-3.35,1.54-2.7,4.42c0.92,4.09,1.32,8.38,1.25,12.57c-0.03,2.03-1.1,4.67-2.61,5.94c-5.55,4.67-11.11,5.21-13.23-3.59
	c-0.34-1.42-0.85-2.79-1.29-4.19c-0.41-0.03-0.82-0.07-1.23-0.1c-0.25,1.37-0.64,2.73-0.72,4.1c-0.5,7.98-0.49,16.01-1.48,23.92
	c-1.71,13.79-7.49,26.13-15.28,37.5c-2.37,3.46-2.67,6.55-1.32,10.48c4.59,13.35,8.87,26.8,13.24,40.23
	c1.83,5.61,2.24,5.96,8.24,5.96c33.25,0,66.51-0.01,99.76-0.01c1.6,0,3.21,0,5.07,0c0,1.79,0,3.21,0,5.06
	c-1.82,0.08-3.65,0.24-5.47,0.24c-35.25,0-70.5-0.04-105.76-0.01c-2.39,0-3.68-0.9-4.41-3.13c-5.59-17.1-11.35-34.15-16.73-51.32
	c-0.67-2.13-0.15-5.46,1.16-7.26c11.74-16.12,17.67-34.02,17.5-53.96c-0.07-8.61-0.01-17.22-0.01-26.49
	c4.03,0.92,6.6,3.03,8.22,5.64c2.26,3.65,3.89,7.73,5.48,11.75c1.12,2.85,2.22,3.33,4.47,1.24c2.33-2.17,2.42-4.85,1.44-7.61
	c-1.75-4.91-3.61-9.77-5.58-15.04c12.88-2.39,26.28-2.24,38.1-8.41c0-0.43,0-0.85,0-1.28c-2.24-0.45-4.46-1.02-6.72-1.32
	c-4.46-0.59-8.97-0.84-13.39-1.64c-1.31-0.24-2.38-1.84-3.56-2.81c1.24-0.94,2.42-2.61,3.72-2.72c9.09-0.75,18.21-1.14,27.31-1.73
	c3.46-0.23,6.91-0.67,10.46-4c-2.54-0.97-4.37-2.24-6.23-2.27c-5.84-0.11-11.69,0.18-17.52,0.46c-2.11,0.1-4.21,0.88-6.3,0.8
	c-1.34-0.05-2.65-1.1-3.97-1.69c0.84-1.17,1.44-2.85,2.58-3.41c3.24-1.59,6.74-2.65,10.07-4.07c1.6-0.68,3.06-1.68,4.58-2.54
	c-0.14-0.47-0.29-0.94-0.43-1.41c-1.99,0.17-4.05,0.03-5.94,0.55c-12.05,3.3-24.18,6.36-36.04,10.26c-8.2,2.7-15.55,1.99-23.1-1.85
	c-16.26-8.27-32.56-16.48-49.05-24.27c-7.99-3.78-16.36-6.83-24.73-9.72c-10.38-3.58-20-1.45-28.56,5.28
	c-3.73,2.93-7.19,6.2-10.79,9.3c-0.72,0.62-1.51,1.15-2.57,1.96c-1.65-4.56-3.04-8.79-4.7-12.92c-2.76-6.84-6.61-12.95-13-16.97
	c-6.68-4.2-13.77-3.8-20.93-1.3c-11.73,4.1-20.45,12.3-28.65,21.15c-18.53,19.99-30.74,43.28-36.33,69.98
	c-2.87,13.73-1.9,26.83,6.52,38.72c4.24,5.99,9.75,6.33,14.5,0.69c6.05-7.17,9.25-15.77,11.3-24.66c2.72-11.8,4.64-23.78,6.9-35.68
	c0.37-1.93,0.29-4.14,3.1-4.38c3.09-0.26,3.32,2.1,3.76,4.14c0.86,4.03,1.27,8.19,2.48,12.1c0.63,2.05,2.16,4.41,3.96,5.43
	c24.46,13.86,49.04,27.51,73.6,41.19c4.54,2.53,4.58,2.5,2.25,7.02c-5.95,11.55-11.85,23.13-17.93,34.61
	c-1.98,3.74-2.53,7.33-1.46,11.5c2.96,11.62,5.53,23.34,8.43,34.98c0.8,3.22,0.36,4.61-3.34,4.45c-5.24-0.23-10.5-0.03-15.75-0.01
	c-1.91,0.01-4.09,0.15-4.2-2.5c-0.1-2.76,2.13-2.61,4.02-2.62c2.88-0.02,5.75,0.04,8.63-0.02c4.56-0.09,4.88-0.43,3.87-4.8
	c-2.4-10.35-4.8-20.7-7.38-31c-0.8-3.2-0.73-6.04,0.85-9.02c5.77-10.94,11.38-21.96,17.07-32.94c2.63-5.07,2.61-5-2.52-7.85
	c-23.47-13.06-46.93-26.14-70.35-39.3C428.15,150,426.61,148.34,424.08,146.3z"/>
<path d="M343.11,261.57c0.82-5.3,1.12-12.64,3.2-19.44c2.88-9.41,11.23-13.9,21.85-13.28c10.25,0.6,17.87,6.21,19.87,15.69
	c2.63,12.45,2.72,25.12,0.21,37.57c-2.27,11.27-10.34,16.78-22.48,16.53c-11.26-0.23-18.92-6.48-20.85-17.64
	C343.91,275.26,343.79,269.37,343.11,261.57z M376.96,263.16c-0.36-5.01-0.42-10.89-1.3-16.65c-0.78-5.13-4.08-7.66-8.62-7.8
	c-5.67-0.16-9.41,3.41-9.9,10.35c-0.48,6.83-0.38,13.7-0.39,20.56c-0.01,3.36,0.02,6.76,0.52,10.07c0.91,6.1,4.28,9.19,9.46,9.22
	c5.09,0.04,8.29-2.68,9.19-8.88C376.68,274.75,376.61,269.36,376.96,263.16z"/>
<path d="M439.25,251.23c0,5.87,0.11,11.75-0.05,17.62c-0.09,3.05,0.96,4.55,4.08,4.16c4.26-0.53,3.76,2.37,3.76,5.03
	c0,2.57,0.35,5.28-3.63,4.8c-3.38-0.41-4.43,1.27-4.19,4.42c0.18,2.49-0.05,5,0.05,7.49c0.16,3.73-2.63,3.45-4.61,2.91
	c-2.83-0.77-7.43,2.95-8.36-2.83c-0.39-2.44-0.24-5-0.03-7.48c0.29-3.41-0.97-4.74-4.47-4.61c-5.87,0.22-11.75,0.17-17.62,0.02
	c-1.98-0.05-5.56-0.5-5.65-1.15c-0.4-2.91-0.69-6.43,0.59-8.88c3.41-6.51,7.65-12.59,11.57-18.83c4.25-6.77,8.65-13.45,12.71-20.33
	c1.73-2.94,3.75-4.17,7.21-4.04c9.69,0.35,8.6-1.3,8.65,8.56C439.27,242.48,439.25,246.86,439.25,251.23z M426.21,248.81
	c-0.48-0.13-0.95-0.27-1.43-0.4c-4.93,7.79-9.85,15.57-14.78,23.36c0.21,0.41,0.42,0.82,0.63,1.23c4.03,0,8.05-0.09,12.08,0.03
	c2.61,0.08,3.56-1.07,3.51-3.57c-0.08-4.35-0.02-8.71-0.01-13.06C426.22,253.87,426.21,251.34,426.21,248.81z"/>
<path d="M328.15,251.28c0,5.87,0.15,11.74-0.06,17.6c-0.11,3.1,0.94,4.55,4.03,4.13c4.22-0.58,3.84,2.21,3.87,4.93
	c0.03,2.78,0.23,5.46-3.92,4.91c-2.88-0.38-4.1,1-3.92,3.92c0.15,2.36,0.02,4.74,0.01,7.11c0,0.75,0.27,1.73-0.09,2.21
	c-2.74,3.56-6.6,1.08-9.93,1.56c-0.82,0.12-2.58-1.43-2.73-2.4c-0.4-2.56-0.34-5.24-0.11-7.84c0.32-3.73-1.36-4.77-4.83-4.65
	c-5.74,0.2-11.49,0.18-17.23,0c-2.07-0.07-5.72-0.56-5.87-1.38c-0.51-2.75-0.61-6.18,0.66-8.53c3.73-6.9,8.19-13.41,12.37-20.07
	c4.18-6.66,8.46-13.26,12.49-20.01c1.39-2.32,2.99-3.23,5.7-3.22c9.58,0.06,9.58-0.03,9.58,9.35c0,4.12,0,8.24,0,12.36
	C328.16,251.28,328.15,251.28,328.15,251.28z M315.26,248.84c-0.52-0.13-1.03-0.26-1.55-0.39c-4.89,7.78-9.78,15.55-15.32,24.38
	c5.83,0,10.48,0.13,15.1-0.15c0.65-0.04,1.63-2.03,1.7-3.16c0.22-3.47,0.08-6.96,0.08-10.45
	C315.26,255.66,315.26,252.25,315.26,248.84z"/>
<path d="M13.06,281.28c0-2.08,0-3.42,0-5.07c1.62-0.09,3.09-0.23,4.55-0.23c76.23-0.01,152.45-0.01,228.68,0
	c1.37,0,2.87-0.2,4.07,0.27c0.91,0.36,2.01,1.67,1.99,2.52c-0.02,0.82-1.25,2.03-2.19,2.32c-1.38,0.42-2.97,0.21-4.46,0.21
	c-75.6,0-151.2-0.02-226.81-0.03C17.06,281.28,15.21,281.28,13.06,281.28z"/>
<path d="M330.82,61.55c4.44,0.49,7.98,2.68,9.92,6.82c1.36,2.91,2.3,6.04,3.16,9.15c1.19,4.28,2.78,8.22,6.24,11.27
	c0.76,0.67,1.45,2.46,1.08,3.14c-0.89,1.63-2.73,3.37-4.51,1.58c-2.48-2.48-4.8-5.32-6.41-8.42c-1.58-3.05-2.08-6.64-3.25-9.93
	c-1.23-3.47-3.28-6.32-7.37-6.46c-3.88-0.13-6.06,2.45-7.7,5.59c-0.52,0.99-0.76,2.19-1.46,3.01c-0.67,0.78-1.96,1.79-2.64,1.58
	c-0.89-0.27-2.16-1.73-2.05-2.52C316.72,69.6,322.57,61.53,330.82,61.55z"/>
<path d="M363.1,21.1c4.71,0.27,8.23,3.38,10.26,8.18c1.21,2.85,1.54,6.08,2.82,8.89c1.57,3.44,3.49,6.78,5.72,9.83
	c1.14,1.57,1.73,2.56,0.4,4.15c-1.34,1.6-3.05,2.29-4.45,0.62c-2.2-2.63-4.33-5.44-5.84-8.49c-1.47-2.98-2.03-6.41-3.17-9.57
	c-1.25-3.46-3.32-6.39-7.31-6.66c-3.72-0.25-5.81,2.44-7.5,5.34c-0.69,1.18-1.04,2.6-1.88,3.64c-0.56,0.69-1.96,1.46-2.55,1.21
	c-0.89-0.39-2.1-1.75-1.98-2.51C348.68,29.29,353.72,21.24,363.1,21.1z"/>
<path d="M335.11,50.05c1.68-1.91,3.05-3.47,4.66-5.31c3.95,3.2,7.71,6.2,11.43,9.24c5.01,4.1,10.01,8.21,14.98,12.36
	c1.46,1.22,2.95,2.4,1.15,4.61c-1.64,2.02-2.84,1.01-4.35-0.11c-8.41-6.22-16.87-12.36-25.29-18.55
	C336.9,51.72,336.21,51.02,335.11,50.05z"/>
<path d="M371.82,76.68c1.13-0.86,2.56-2.63,4.35-3.12c2.42-0.66,5.24,2.14,5.13,4.68c-0.13,2.75-1.77,4.48-4.52,4.41
	C373.9,82.59,372.36,80.72,371.82,76.68z"/>
<path d="M386.62,59.16c0.26-2.71,1.64-4.56,4.45-4.5c2.85,0.06,4.72,1.85,4.84,4.71c0.11,2.78-1.68,4.61-4.38,4.56
	C388.78,63.88,386.99,62.11,386.62,59.16z"/>
<path d="M354.93,99.34c0.22-2.46,1.52-4.05,4.24-4.14c2.63-0.09,5.32,2.49,5.05,4.98c-0.29,2.71-2.01,4.51-4.73,4.33
	C356.69,104.33,355.05,102.44,354.93,99.34z"/>
<path d="M62.22,295.61c3.32,0,6.51,0,9.8,0c0.08,0.58,0.15,1.12,0.24,1.81c4.25-2.75,8.29-3.11,11.67,0.72
	c2.01-0.91,3.87-2.16,5.89-2.57c4.75-0.96,8.1,1.97,8.14,6.81c0.04,4.07,0.01,8.15,0.01,12.35c-3.13,0-6.19,0-9.45,0
	c0-2.08,0.01-4.12,0-6.17c-0.01-1.86,0.02-3.72-0.06-5.57c-0.05-1.16-0.74-1.77-1.96-1.67c-1.15,0.09-1.53,0.65-1.5,1.83
	c0.08,3.82,0.03,7.64,0.03,11.58c-3.14,0-6.19,0-9.41,0c0-3.58,0.01-7.13-0.01-10.68c0-0.61,0.05-1.43-0.3-1.77
	c-0.5-0.49-1.33-0.81-2.05-0.86c-0.86-0.06-1.13,0.6-1.12,1.47c0.04,3.36,0.02,6.71,0.02,10.07c0,0.56,0,1.11,0,1.78
	c-3.37,0-6.6,0-9.94,0C62.22,308.41,62.22,302.09,62.22,295.61z"/>
<path d="M152.64,309.76c-1.98,0.15-3.71,0.46-5.41,0.39c-3.83-0.17-6.44-2.99-6.58-6.87c-0.15-4.06,2-7.13,5.89-7.37
	c5.23-0.32,10.5-0.08,15.93-0.08c0,2.07,0,4.28,0,6.48c0,3,0.02,5.99-0.02,8.99c-0.06,5.32-2.74,8.26-8,8.81
	c-4.29,0.44-8.44-0.08-12.4-1.89c-0.95-0.43-1.42-0.95-1.37-2.09c0.1-2.37,0.03-4.75,0.03-7.45c3.33,2.73,6.77,4.35,10.86,2.66
	C152.06,311.14,152.29,310.31,152.64,309.76z M152.48,301.02c-0.93,0.21-1.72,0.24-2.36,0.57c-1.11,0.56-1.35,1.74-0.8,2.65
	c0.38,0.63,1.43,0.92,2.24,1.18c0.19,0.06,0.84-0.57,0.88-0.93C152.55,303.44,152.48,302.35,152.48,301.02z"/>
<path d="M36.67,312.78c-5.5,2.59-10.96,3.59-16.57,1.14c-4.84-2.11-7.61-7.29-6.95-12.52c0.72-5.75,4.74-10.08,10.32-11.07
	c4.59-0.82,8.9,0.01,13.17,2.26c-1.45,2.77-2.82,5.46-4.29,8.09c-0.16,0.29-0.93,0.35-1.41,0.34c-1.69-0.02-3.38-0.24-5.05-0.11
	c-0.56,0.04-1.44,0.88-1.48,1.41c-0.04,0.51,0.79,1.5,1.3,1.55c2.06,0.18,4.14,0.07,6.62,0.07
	C33.57,306.48,35.06,309.5,36.67,312.78z"/>
<path d="M243.71,314.71c0-6.37,0-12.66,0-19.05c3.32,0,6.58,0,9.92,0c0.07,0.59,0.13,1.14,0.22,1.88c1.87-1.34,3.75-2.15,6.02-2.13
	c3.81,0.04,6.57,2.33,6.69,6.2c0.14,4.33,0.03,8.66,0.03,13.12c-3.12,0-6.17,0-9.42,0c0-3.27,0.01-6.51,0-9.74
	c0-0.72-0.02-1.45-0.11-2.16c-0.14-1.13-0.83-1.56-1.95-1.46c-1.13,0.1-1.41,0.7-1.4,1.76c0.05,3.81,0.02,7.63,0.02,11.59
	C250.38,314.71,247.12,314.71,243.71,314.71z"/>
<path d="M114.98,314.73c0-6.38,0-12.7,0-19.1c3.31,0,6.54,0,9.89,0c0.04,0.58,0.08,1.17,0.13,1.94c2.22-1.75,4.57-2.54,7.28-2.08
	c3,0.51,5.16,2.4,5.29,5.39c0.2,4.57,0.05,9.16,0.05,13.85c-3.02,0-6.04,0-9.3,0c0-0.82,0-1.67,0-2.53c0-2.89,0.03-5.78-0.02-8.67
	c-0.02-1.61-0.66-2.27-1.95-2.19c-0.95,0.06-1.47,0.41-1.45,1.53c0.06,3.91,0.02,7.83,0.02,11.86
	C121.59,314.73,118.33,314.73,114.98,314.73z"/>
<path d="M230.2,315.11c-4.93,0.02-8.89-2.66-10.09-6.86c-1.32-4.6,0.25-9.28,4.12-11.5c4.01-2.3,8.21-2.3,12.2,0.08
	c3.73,2.23,5.24,6.73,4.04,11.27c-1.03,3.9-4.77,6.81-9.04,7.01C231.03,315.13,230.62,315.11,230.2,315.11z M232.34,305.01
	c0.02-1.23-0.76-2.05-1.97-2.08c-1.34-0.04-2.17,0.74-2.19,2.03c-0.02,1.2,0.79,2.05,1.98,2.09
	C231.47,307.09,232.33,306.29,232.34,305.01z"/>
<path d="M48.69,295.25c7.43-0.06,12.04,5.72,10.23,12.76c-0.99,3.86-4.45,6.77-8.66,7.04c-1.72,0.11-3.54,0.02-5.2-0.44
	c-4.9-1.35-7.68-6.05-6.83-11.18c0.81-4.91,4.92-8.32,9.91-8.23C48.36,295.2,48.56,295.24,48.69,295.25z M50.8,305.04
	c0.03-1.14-0.84-2.08-1.97-2.15c-1.21-0.07-2.2,0.84-2.23,2.04c-0.03,1.19,0.78,2.06,1.97,2.11
	C49.84,307.1,50.77,306.27,50.8,305.04z"/>
<path d="M206.86,295.25c7.65-0.06,12.42,6.43,9.92,13.51c-1.56,4.4-5.77,6.75-11.38,6.34c-4.52-0.33-8.19-3.54-8.98-7.85
	C195.16,300.4,199.59,295.31,206.86,295.25z M206.79,307.04c1.27,0,2.15-0.9,2.11-2.14c-0.04-1.14-0.94-2.02-2.1-2.02
	c-1.21-0.01-2.14,0.96-2.1,2.17C204.73,306.25,205.58,307.05,206.79,307.04z"/>
<path d="M175.03,313.1c0.8-1.95,1.49-3.65,2.25-5.53c0.54,0.48,0.92,1,1.43,1.23c1.28,0.6,2.59,1.21,3.96,1.51
	c0.49,0.11,1.17-0.69,1.77-1.08c-0.41-0.53-0.7-1.28-1.24-1.53c-1.39-0.66-2.94-0.98-4.33-1.64c-2.57-1.22-3.69-4.05-2.79-6.64
	c0.55-1.57,1.68-2.63,3.18-3.19c4.88-1.82,9.68-1.22,14.67,0.49c-0.87,1.81-1.63,3.41-2.31,4.83c-1.44-0.61-2.76-1.34-4.17-1.69
	c-0.57-0.14-1.35,0.53-2.03,0.84c0.48,0.53,0.87,1.25,1.47,1.53c1.01,0.48,2.17,0.64,3.23,1.01c2.78,0.96,4.15,2.61,4.26,5.08
	c0.12,2.74-1.15,4.74-3.85,5.92c-3.18,1.39-6.48,1.03-9.74,0.43C178.89,314.31,177.05,313.66,175.03,313.1z"/>
<path d="M101.47,295.65c3.31,1.27,6.52,1.31,9.8,0c0,6.38,0,12.69,0,19.1c-3.27,0-6.49,0-9.8,0
	C101.47,308.4,101.47,302.08,101.47,295.65z"/>
<path d="M301.38,304.8c2.82-0.03,5.22,2.36,5.21,5.21c-0.01,2.82-2.4,5.23-5.23,5.26c-2.87,0.04-5.26-2.27-5.3-5.13
	C295.99,307.04,298.19,304.84,301.38,304.8z"/>
<path d="M288.03,315.16c-2.86,0.06-5.24-2.23-5.29-5.09c-0.05-2.77,2.3-5.25,5-5.29c3.14-0.04,5.46,2.06,5.53,5
	C293.35,312.93,291.24,315.1,288.03,315.16z"/>
<path d="M341.09,304.83c3.07,0.07,5.25,2.31,5.18,5.32c-0.07,2.86-2.47,5.17-5.33,5.12c-2.92-0.05-5.28-2.52-5.2-5.43
	C335.82,306.96,338.16,304.77,341.09,304.83z"/>
<path d="M327.74,315.15c-2.91,0.03-5.22-2.22-5.25-5.1c-0.03-2.82,2.26-5.23,5.01-5.26c3.18-0.03,5.44,2.04,5.48,5.01
	C333.02,313.01,330.95,315.12,327.74,315.15z"/>
<path d="M314.64,304.82c2.89-0.01,5.19,2.32,5.16,5.22c-0.02,2.84-2.31,5.17-5.08,5.15c-3.2-0.01-5.44-2.16-5.43-5.22
	C309.3,306.96,311.52,304.83,314.64,304.82z"/>
<path d="M274.79,315.14c-2.98,0.01-5.21-2.14-5.26-5.06c-0.05-2.91,2.23-5.25,5.12-5.26c3.11-0.01,5.35,2.11,5.39,5.12
	C280.07,312.95,277.88,315.13,274.79,315.14z"/>
<path d="M106.45,295.62c-1.73-0.05-2.83-1.13-2.82-2.78c0.01-1.56,1.33-2.85,2.88-2.84c1.55,0.02,2.84,1.35,2.82,2.9
	C109.31,294.53,108.09,295.67,106.45,295.62z"/>
</svg>
