<svg width="340" height="14" viewBox="0 0 340 14" fill="none" xmlns="http://www.w3.org/2000/svg">
<path d="M170.361 7.36364C170.361 8.14725 170.215 8.81842 169.921 9.37713C169.63 9.93348 169.232 10.3596 168.728 10.6555C168.226 10.9515 167.657 11.0994 167.02 11.0994C166.383 11.0994 165.812 10.9515 165.308 10.6555C164.806 10.3572 164.409 9.92992 164.115 9.37358C163.824 8.81487 163.678 8.14489 163.678 7.36364C163.678 6.58002 163.824 5.91004 164.115 5.35369C164.409 4.79498 164.806 4.36766 165.308 4.07173C165.812 3.7758 166.383 3.62784 167.02 3.62784C167.657 3.62784 168.226 3.7758 168.728 4.07173C169.232 4.36766 169.63 4.79498 169.921 5.35369C170.215 5.91004 170.361 6.58002 170.361 7.36364ZM169.037 7.36364C169.037 6.81203 168.95 6.34683 168.778 5.96804C168.607 5.58688 168.37 5.29924 168.067 5.10511C167.764 4.90862 167.415 4.81037 167.02 4.81037C166.624 4.81037 166.275 4.90862 165.972 5.10511C165.669 5.29924 165.431 5.58688 165.258 5.96804C165.088 6.34683 165.003 6.81203 165.003 7.36364C165.003 7.91525 165.088 8.38163 165.258 8.76278C165.431 9.14157 165.669 9.42921 165.972 9.62571C166.275 9.81984 166.624 9.9169 167.02 9.9169C167.415 9.9169 167.764 9.81984 168.067 9.62571C168.37 9.42921 168.607 9.14157 168.778 8.76278C168.95 8.38163 169.037 7.91525 169.037 7.36364ZM171.55 11V5.54545H172.797V6.45455H172.853C172.953 6.13968 173.123 5.89702 173.365 5.72656C173.609 5.55374 173.887 5.46733 174.199 5.46733C174.27 5.46733 174.35 5.47088 174.437 5.47798C174.527 5.48272 174.602 5.491 174.661 5.50284V6.68537C174.607 6.66643 174.52 6.64986 174.402 6.63565C174.286 6.61908 174.173 6.6108 174.064 6.6108C173.83 6.6108 173.619 6.66169 173.432 6.76349C173.248 6.86293 173.102 7.00142 172.995 7.17898C172.889 7.35653 172.836 7.56132 172.836 7.79332V11H171.55Z" fill="black" fill-opacity="0.25"/>
<line x1="185" y1="8.5" x2="340" y2="8.5" stroke="black" stroke-opacity="0.25"/>
<line y1="8.5" x2="155" y2="8.5" stroke="black" stroke-opacity="0.25"/>
</svg>
